<svg width="365" height="30" viewBox="0 0 365 30" fill="none" xmlns="http://www.w3.org/2000/svg">
<path d="M24.892 1.526V29.912H24.778L4.6 9.43L4.676 29H0.952V0.689998H1.142L21.282 21.4L21.206 1.526H24.892ZM48.2938 21.78H37.7298L34.8038 29H31.1558L43.1638 0.385999H43.3918L55.3998 29H51.1438L48.2938 21.78ZM47.0398 18.588L43.1258 8.556L39.0598 18.588H47.0398ZM75.71 1.526V5.06H68.338V29H64.652V5.06H57.47V1.526H75.71ZM94.9509 21.78H84.3869L81.4609 29H77.8129L89.8209 0.385999H90.0489L102.057 29H97.8009L94.9509 21.78ZM93.6969 18.588L89.7829 8.556L85.7169 18.588H93.6969ZM111.979 1.526V25.428H125.963V29H108.293V1.526H111.979ZM136.718 1.526V29H133.032V1.526H136.718ZM163.57 1.526V5.06H149.396V13.42H162.05V16.954H149.396V25.428H164.102V29H145.71V1.526H163.57ZM188.446 1.526V25.428H202.43V29H184.76V1.526H188.446ZM223.9 21.78H213.336L210.41 29H206.762L218.77 0.385999H218.998L231.006 29H226.75L223.9 21.78ZM222.646 18.588L218.732 8.556L214.666 18.588H222.646ZM239.993 19.272C239.993 20.488 240.285 21.59 240.867 22.578C241.45 23.5407 242.235 24.3133 243.223 24.896C244.237 25.4533 245.351 25.732 246.567 25.732C247.834 25.732 248.974 25.4533 249.987 24.896C251.026 24.3387 251.837 23.566 252.419 22.578C253.002 21.59 253.293 20.488 253.293 19.272V1.526H256.903V19.386C256.903 21.3367 256.447 23.072 255.535 24.592C254.623 26.0867 253.382 27.252 251.811 28.088C250.241 28.8987 248.493 29.304 246.567 29.304C244.667 29.304 242.932 28.8987 241.361 28.088C239.791 27.252 238.549 26.0867 237.637 24.592C236.751 23.072 236.307 21.3367 236.307 19.386V1.526H239.993V19.272ZM280.705 29L274.245 18.854C274.043 18.8793 273.739 18.892 273.333 18.892H269.267V29H265.581V1.526H272.915C274.79 1.526 276.462 1.85533 277.931 2.514C279.401 3.17267 280.553 4.148 281.389 5.44C282.225 6.70667 282.643 8.23933 282.643 10.038C282.643 11.7353 282.263 13.2933 281.503 14.712C280.769 16.1307 279.629 17.2073 278.083 17.942L284.999 29H280.705ZM273.257 15.32C275.233 15.32 276.652 14.8007 277.513 13.762C278.4 12.7233 278.843 11.5327 278.843 10.19C278.843 9.37933 278.653 8.58133 278.273 7.796C277.919 7.01067 277.336 6.36467 276.525 5.858C275.74 5.326 274.739 5.06 273.523 5.06H269.267V15.32H273.257ZM305.979 6.428C304.991 5.896 303.94 5.46533 302.825 5.136C301.711 4.80667 300.659 4.642 299.671 4.642C298.177 4.642 296.986 4.984 296.099 5.668C295.238 6.32667 294.807 7.23867 294.807 8.404C294.807 9.544 295.314 10.4813 296.327 11.216C297.366 11.9253 298.835 12.6347 300.735 13.344C302.154 13.8507 303.345 14.408 304.307 15.016C305.295 15.5987 306.106 16.422 306.739 17.486C307.398 18.5247 307.727 19.8547 307.727 21.476C307.727 22.9453 307.36 24.2753 306.625 25.466C305.891 26.6567 304.839 27.594 303.471 28.278C302.129 28.962 300.545 29.304 298.721 29.304C297.024 29.304 295.39 29.038 293.819 28.506C292.249 27.9487 290.868 27.252 289.677 26.416L291.311 23.49C292.249 24.1993 293.376 24.8073 294.693 25.314C296.011 25.7953 297.239 26.036 298.379 26.036C299.849 26.036 301.128 25.656 302.217 24.896C303.332 24.136 303.889 23.0087 303.889 21.514C303.889 20.2473 303.421 19.2467 302.483 18.512C301.571 17.752 300.279 17.0427 298.607 16.384C297.062 15.8013 295.77 15.2313 294.731 14.674C293.718 14.1167 292.844 13.3567 292.109 12.394C291.375 11.406 291.007 10.1773 291.007 8.708C291.007 6.55467 291.755 4.81933 293.249 3.502C294.769 2.15933 296.733 1.45 299.139 1.374C302.103 1.374 304.852 2.10866 307.385 3.578L305.979 6.428ZM332.844 1.526V5.06H318.67V13.42H331.324V16.954H318.67V25.428H333.376V29H314.984V1.526H332.844ZM364.851 1.526V29.912H364.737L344.559 9.43L344.635 29H340.911V0.689998H341.101L361.241 21.4L361.165 1.526H364.851Z" fill="#232323"/>
</svg>
